<?xml version="1.0" standalone="no"?><!DOCTYPE svg PUBLIC "-//W3C//DTD SVG 1.1//EN" "http://www.w3.org/Graphics/SVG/1.1/DTD/svg11.dtd"><svg t="1710296748047" class="icon" viewBox="0 0 1024 1024" version="1.1" xmlns="http://www.w3.org/2000/svg" p-id="4373" id="mx_n_1710296748050" width="16" height="16" xmlns:xlink="http://www.w3.org/1999/xlink"><path d="M384 928H192a96 96 0 0 1-96-96V640a96 96 0 0 1 96-96h192a96 96 0 0 1 96 96v192a96 96 0 0 1-96 96zM192 608a32 32 0 0 0-32 32v192a32 32 0 0 0 32 32h192a32 32 0 0 0 32-32V640a32 32 0 0 0-32-32H192zM784 928H640a96 96 0 0 1-96-96V640a96 96 0 0 1 96-96h192a96 96 0 0 1 96 96v144a32 32 0 0 1-64 0V640a32 32 0 0 0-32-32H640a32 32 0 0 0-32 32v192a32 32 0 0 0 32 32h144a32 32 0 0 1 0 64zM384 480H192a96 96 0 0 1-96-96V192a96 96 0 0 1 96-96h192a96 96 0 0 1 96 96v192a96 96 0 0 1-96 96zM192 160a32 32 0 0 0-32 32v192a32 32 0 0 0 32 32h192a32 32 0 0 0 32-32V192a32 32 0 0 0-32-32H192zM832 480H640a96 96 0 0 1-96-96V192a96 96 0 0 1 96-96h192a96 96 0 0 1 96 96v192a96 96 0 0 1-96 96zM640 160a32 32 0 0 0-32 32v192a32 32 0 0 0 32 32h192a32 32 0 0 0 32-32V192a32 32 0 0 0-32-32H640z" fill="#bfbfbf" p-id="4374"></path></svg>